HIERARCHY
ROOT Hips
{
 OFFSET 0.000000 0.000000 0.000000
 CHANNELS 6 Xposition Yposition Zposition Yrotation Xrotation Zrotation
 JOINT Chest
 {
  OFFSET 0.000000 9.585900 0.002600
  CHANNELS 3 Yrotation Xrotation Zrotation
  JOINT Chest2
  {
   OFFSET 0.000000 9.601200 -0.005300
   CHANNELS 3 Yrotation Xrotation Zrotation
   JOINT Chest3
   {
    OFFSET 0.000000 9.561800 0.000000
    CHANNELS 3 Yrotation Xrotation Zrotation
    JOINT Chest4
    {
     OFFSET 0.000000 9.552100 0.000000
     CHANNELS 3 Yrotation Xrotation Zrotation
     JOINT Neck
     {
      OFFSET 0.000000 14.453000 0.000000
      CHANNELS 3 Yrotation Xrotation Zrotation
      JOINT Head
      {
       OFFSET 0.000000 8.936500 -0.011300
       CHANNELS 3 Yrotation Xrotation Zrotation
       End Site
       {
        OFFSET 0.000000 17.073600 -0.006000
       }
      }
     }
     JOINT RightCollar
     {
      OFFSET -2.921100 9.558500 0.000000
      CHANNELS 3 Yrotation Xrotation Zrotation
      JOINT RightShoulder
      {
       OFFSET -13.519700 0.000000 0.000000
       CHANNELS 3 Yrotation Xrotation Zrotation
       JOINT RightElbow
       {
        OFFSET 0.000000 -29.696600 0.000000
        CHANNELS 3 Yrotation Xrotation Zrotation
        JOINT RightWrist
        {
         OFFSET 0.000000 -24.004700 0.000000
         CHANNELS 3 Yrotation Xrotation Zrotation
         End Site
         {
          OFFSET 0.000000 -17.728500 0.000000
         }
        }
       }
      }
     }
     JOINT LeftCollar
     {
      OFFSET 2.921100 9.558500 0.000000
      CHANNELS 3 Yrotation Xrotation Zrotation
      JOINT LeftShoulder
      {
       OFFSET 13.519700 0.000000 0.000000
       CHANNELS 3 Yrotation Xrotation Zrotation
       JOINT LeftElbow
       {
        OFFSET 0.000000 -29.696600 0.000000
        CHANNELS 3 Yrotation Xrotation Zrotation
        JOINT LeftWrist
        {
         OFFSET 0.000000 -24.004700 0.000000
         CHANNELS 3 Yrotation Xrotation Zrotation
         End Site
         {
          OFFSET 0.000000 -17.728500 0.000000
         }
        }
       }
      }
     }
    }
   }
  }
 }
 JOINT RightHip
 {
  OFFSET -7.771700 -0.012900 -0.001300
  CHANNELS 3 Yrotation Xrotation Zrotation
  JOINT RightKnee
  {
   OFFSET 0.000000 -40.869800 0.001200
   CHANNELS 3 Yrotation Xrotation Zrotation
   JOINT RightAnkle
   {
    OFFSET 0.000000 -39.717900 0.002100
    CHANNELS 3 Yrotation Xrotation Zrotation
    JOINT RightToe
    {
     OFFSET 0.000000 -4.965400 11.033500
     CHANNELS 3 Yrotation Xrotation Zrotation
     End Site
     {
      OFFSET 0.000000 -1.423100 5.872300
     }
    }
   }
  }
 }
 JOINT LeftHip
 {
  OFFSET 7.771700 -0.012900 -0.001300
  CHANNELS 3 Yrotation Xrotation Zrotation
  JOINT LeftKnee
  {
   OFFSET 0.000000 -40.869800 0.001200
   CHANNELS 3 Yrotation Xrotation Zrotation
   JOINT LeftAnkle
   {
    OFFSET 0.000000 -39.717900 0.002100
    CHANNELS 3 Yrotation Xrotation Zrotation
    JOINT LeftToe
    {
     OFFSET 0.000000 -4.965400 11.033500
     CHANNELS 3 Yrotation Xrotation Zrotation
     End Site
     {
      OFFSET 0.000000 -1.423100 5.872300
     }
    }
   }
  }
 }
}
MOTION
Frames: 14
Frame Time: 0.008333
0.000000 85.388000 0.000000 0.000000 -5.767877 0.000000 0.000000 11.653817 0.000000 0.000000 -5.885947 0.000000 0.000000 -0.000000 0.000000 0.000000 -0.000000 0.000000 0.000000 12.528835 0.000000 0.000000 0.711642 0.000000 0.000000 -0.000000 0.000000 0.000000 0.000000 -90.000000 0.000000 -2.309062 0.000000 0.000000 2.309062 0.000000 0.000000 -0.000000 0.000000 0.000000 -0.000000 90.000000 0.000000 -2.309062 0.000000 0.000000 2.309062 0.000000 0.000000 8.520406 0.000000 0.000000 1.905762 0.000000 -0.000000 -4.658285 0.000000 0.000000 -0.000000 0.000000 0.000000 8.520406 0.000000 0.000000 1.905762 0.000000 -0.000000 -4.658285 0.000000 0.000000 -0.000000 0.000000
-27.894051 55.250043 6.195242 -177.096065 -18.254273 -1.459689 0.142935 16.275626 0.271479 0.015838 1.623113 0.031968 0.018855 2.704638 0.070475 0.152281 14.417508 0.342088 0.788221 16.435733 3.739775 -0.019506 -8.407639 3.772520 0.996167 1.284628 2.267205 1.367338 -6.437312 -7.447268 -79.547583 -60.610516 108.726569 -12.491480 4.510591 3.615407 -5.149806 -1.028072 1.772280 3.604979 -9.686229 6.899720 62.079825 -52.035463 -103.040949 9.757983 -7.964691 8.831062 -0.885248 -56.706429 10.614893 -87.852966 87.140019 -93.228021 -11.109585 -22.158705 14.994452 0.027107 -0.074170 0.017348 9.895459 -53.233952 -6.014103 110.235801 77.519547 106.605169 -8.428693 -24.035336 2.682791 0.038032 0.152325 0.020393
-27.893995 55.251638 6.196579 -177.088389 -18.250678 -1.459310 0.143404 16.280702 0.258126 0.013964 1.621286 0.034929 0.021495 2.711925 0.061533 0.150558 14.414009 0.345187 0.879069 16.382497 3.667176 0.092797 -8.467641 3.672967 0.988797 1.235916 2.278020 1.376739 -6.422236 -7.457068 -79.563875 -60.588698 108.755902 -12.537437 4.419145 3.546506 -5.179328 -1.051782 1.733217 3.668753 -9.672424 6.912743 62.026553 -51.962143 -102.941870 9.787973 -7.996931 8.771679 -0.890445 -56.708579 10.615688 -87.818635 87.146649 -93.201228 -11.109391 -22.155550 14.992272 0.038971 -0.073773 0.021053 9.892457 -53.235633 -6.016049 110.209296 77.523809 106.576178 -8.432962 -24.029801 2.684996 0.039291 0.152246 0.021189
-27.894797 55.253434 6.198369 -177.083075 -18.244938 -1.453128 0.141719 16.278558 0.244030 0.014573 1.622073 0.034096 0.018823 2.710827 0.065671 0.157489 14.419421 0.332305 0.969084 16.322665 3.596099 0.203781 -8.534459 3.575421 0.980674 1.216904 2.295185 1.379605 -6.432781 -7.464403 -79.556617 -60.569145 108.758337 -12.583029 4.313672 3.470161 -5.224605 -1.077039 1.687535 3.747080 -9.659482 6.934792 61.986563 -51.881304 -102.846008 9.816488 -8.036040 8.711427 -0.886605 -56.713438 10.611835 -87.742323 87.143705 -93.123789 -11.156517 -22.148093 14.998553 0.102398 -0.063501 0.027988 9.897043 -53.239412 -6.027314 110.186720 77.531021 106.549581 -8.435892 -24.020285 2.689544 0.033281 0.148040 0.019351
-27.894902 55.255781 6.199229 -177.084950 -18.245017 -1.449840 0.150259 16.282168 0.231932 0.014186 1.621542 0.034914 0.016540 2.710452 0.071855 0.161422 14.420178 0.327967 1.062031 16.259969 3.513839 0.314247 -8.605598 3.480418 0.975421 1.202826 2.302567 1.376659 -6.442219 -7.460993 -79.546528 -60.551511 108.747010 -12.624520 4.216579 3.392477 -5.276423 -1.093987 1.628210 3.836840 -9.652738 6.957748 61.980696 -51.801813 -102.775130 9.853160 -8.048112 8.643472 -0.884016 -56.711916 10.612265 -87.657010 87.143825 -93.040994 -11.162858 -22.144570 14.997625 -0.000202 -0.069963 0.020111 9.898174 -53.238152 -6.029955 110.177934 77.529949 106.537416 -8.432838 -24.016662 2.690340 0.028834 0.144866 0.017411
-27.894380 55.258166 6.200270 -177.094149 -18.243518 -1.449025 0.167755 16.281682 0.224993 0.010087 1.621457 0.040421 0.020732 2.713261 0.065060 0.164957 14.418679 0.331071 1.154486 16.191097 3.430240 0.426988 -8.677930 3.385833 0.971316 1.176014 2.303163 1.368730 -6.439631 -7.443982 -79.518394 -60.537244 108.709821 -12.665166 4.116934 3.311421 -5.331801 -1.098636 1.574279 3.927106 -9.661708 6.970231 62.011070 -51.715590 -102.726262 9.895045 -8.021876 8.557533 -0.882636 -56.712290 10.616929 -87.558688 87.146075 -92.948213 -11.131264 -22.144047 14.990672 -0.014916 -0.073004 0.016156 9.899758 -53.238693 -6.025688 110.171275 77.533934 106.530274 -8.425144 -24.015896 2.687770 0.026984 0.143918 0.015997
-27.894369 55.260172 6.202303 -177.090307 -18.234750 -1.450220 0.174453 16.271625 0.214740 0.004340 1.623421 0.047389 0.037307 2.708008 0.039565 0.175324 14.412769 0.311305 1.245946 16.127988 3.392280 0.541231 -8.749367 3.292259 0.946685 1.162556 2.350131 1.365624 -6.440718 -7.423856 -79.503334 -60.515233 108.669151 -12.699018 4.029909 3.231952 -5.398998 -1.077063 1.572551 4.015950 -9.685202 6.967351 62.072780 -51.619672 -102.693098 9.936636 -7.961263 8.445013 -0.888834 -56.719657 10.616667 -87.460110 87.147955 -92.851287 -11.113749 -22.142932 14.986550 0.032540 -0.069866 0.016888 9.895493 -53.246200 -6.027311 110.147979 77.538267 106.506664 -8.422246 -24.013518 2.685121 0.030027 0.145354 0.016796
-27.894287 55.262234 6.203562 -177.089562 -18.229652 -1.452376 0.185989 16.263157 0.204593 0.016573 1.618459 0.030994 0.028190 2.708552 0.052199 0.174139 14.414866 0.316809 1.340459 16.055903 3.307870 0.652968 -8.819572 3.203426 0.935059 1.141133 2.359546 1.356931 -6.441101 -7.403456 -79.493367 -60.501478 108.632617 -12.733418 3.953771 3.152357 -5.445134 -1.061254 1.532762 4.111561 -9.717831 6.952058 62.166228 -51.525129 -102.677064 9.975752 -7.877501 8.307617 -0.895471 -56.723607 10.620660 -87.352988 87.151857 -92.744937 -11.104243 -22.140258 14.983082 0.017124 -0.072033 0.013812 9.890866 -53.250580 -6.024621 110.140800 77.543982 106.498863 -8.416322 -24.012959 2.683449 0.025887 0.145501 0.016228
-27.895545 55.263756 6.205556 -177.091619 -18.218665 -1.446557 0.199595 16.249022 0.186458 0.014174 1.616960 0.033698 0.029450 2.705895 0.050027 0.175940 14.415151 0.316870 1.432157 15.980957 3.225356 0.760014 -8.890886 3.120222 0.897812 1.084939 2.363137 1.373347 -6.392061 -7.379298 -79.534582 -60.493269 108.630573 -12.766390 3.903704 3.099022 -5.488975 -1.044406 1.496938 4.218621 -9.758271 6.928470 62.299857 -51.436725 -102.680166 10.006644 -7.738726 8.124712 -0.903901 -56.735557 10.622201 -87.326058 87.156583 -92.725635 -11.101759 -22.136029 14.982291 0.040656 -0.072625 0.013162 9.897457 -53.258503 -6.035594 110.120358 77.544157 106.478032 -8.415105 -24.013406 2.679508 0.025184 0.146452 0.016908
-27.896583 55.265317 6.206360 -177.091800 -18.212886 -1.443852 0.214868 16.243055 0.170340 0.003016 1.615512 0.046849 0.043989 2.701501 0.031629 0.179680 14.401292 0.302339 1.524599 15.915021 3.167866 0.861398 -8.968110 3.041801 0.859780 1.070889 2.395141 1.383497 -6.373724 -7.359705 -79.587524 -60.504314 108.640499 -12.791856 3.882222 3.087963 -5.536667 -1.013695 1.486530 4.343762 -9.806344 6.896917 62.464484 -51.347723 -102.701739 10.029526 -7.480463 7.841377 -0.904530 -56.740748 10.619801 -87.265352 87.158143 -92.663141 -11.122124 -22.133447 14.987524 0.034981 -0.073239 0.011494 9.900543 -53.264694 -6.045094 110.107261 77.537678 106.467395 -8.414734 -24.009089 2.674206 0.025506 0.140365 0.016034
-27.897355 55.266563 6.206954 -177.094388 -18.205694 -1.442571 0.236312 16.239275 0.153472 -0.000885 1.609164 0.050642 0.051343 2.700658 0.025425 0.187783 14.390433 0.290984 1.613056 15.840907 3.108551 0.957029 -9.053345 2.969148 0.814763 1.050121 2.425152 1.377426 -6.375007 -7.335956 -79.617410 -60.536893 108.637140 -12.796362 3.903124 3.121394 -5.573979 -0.992037 1.503146 4.487130 -9.857897 6.832683 62.631425 -51.252160 -102.740080 10.080518 -7.134914 7.446789 -0.902429 -56.747438 10.617835 -87.190587 87.159620 -92.588343 -11.129028 -22.131570 14.992584 0.033132 -0.073207 0.009250 9.906473 -53.270864 -6.050304 110.089201 77.535545 106.453382 -8.419085 -24.006805 2.670204 0.028398 0.139623 0.017751
-27.896621 55.266642 6.210031 -177.096092 -18.179177 -1.449908 0.249981 16.215223 0.152327 0.012117 1.608985 0.038803 0.054364 2.699152 0.018858 0.235192 14.375647 0.242919 1.675463 15.763452 3.103853 1.049104 -9.142320 2.901803 0.731323 1.026960 2.506356 1.321224 -6.419158 -7.320767 -79.552093 -60.571764 108.587395 -12.778039 3.957560 3.177615 -5.666477 -0.957648 1.532478 4.674655 -9.932562 6.804879 62.789376 -51.129449 -102.789221 10.190002 -6.793321 7.006282 -0.913933 -56.773891 10.628751 -87.092770 87.163644 -92.492079 -11.115054 -22.130352 14.991457 0.036061 -0.073930 0.008569 9.907561 -53.302569 -6.050794 110.094967 77.532188 106.463641 -8.414682 -24.004339 2.665147 0.027049 0.137043 0.017782
-27.896955 55.267090 6.210889 -177.097066 -18.163106 -1.451354 0.260996 16.202008 0.143748 0.023667 1.610077 0.023674 0.066751 2.697558 0.007045 0.240975 14.368474 0.248881 1.757338 15.682189 3.043482 1.138936 -9.227495 2.838354 0.680902 0.995718 2.528768 1.293093 -6.424762 -7.305171 -79.583662 -60.627888 108.618768 -12.740766 4.033370 3.244017 -5.713295 -0.934206 1.505125 4.895705 -10.029597 6.776965 62.933356 -50.954982 -102.834891 10.332121 -6.484600 6.580790 -0.918154 -56.789854 10.630254 -87.052091 87.170163 -92.451824 -11.118599 -22.129115 14.992921 0.021976 -0.075930 0.007520 9.909978 -53.319919 -6.054923 110.096692 77.531595 106.467513 -8.412306 -24.002696 2.661973 0.026103 0.134899 0.017298
-27.896811 55.267374 6.211386 -177.098680 -18.145045 -1.454610 0.285954 16.192829 0.127244 0.026095 1.607466 0.021461 0.071461 2.692862 0.003640 0.240931 14.362932 0.257738 1.844378 15.606800 2.970632 1.227492 -9.303909 2.777542 0.637568 0.963309 2.532491 1.264786 -6.428296 -7.289178 -79.614887 -60.684709 108.658937 -12.697560 4.118817 3.314001 -5.738033 -0.921167 1.506580 5.156634 -10.136881 6.701335 63.055422 -50.731622 -102.872085 10.480585 -6.213125 6.171257 -0.914960 -56.807767 10.628491 -86.988377 87.175050 -92.382303 -11.130421 -22.127319 14.994593 -0.008256 -0.077277 0.005472 9.910065 -53.338945 -6.055001 110.091905 77.529642 106.469034 -8.420244 -24.001616 2.655464 0.029842 0.134484 0.019248
